# xmcd
#
# Track frame offsets:
#	150
#	15095
#	50837
#	70302
#	91847
#	123222
#	149277
#	167167
#	200792
#	221977
#	240872
#	267430
#	283295
#	290650
#
# Disc length: 4095 seconds
#
# Revision: 1
# Processed by: cddbd v1.5.2PL0 Copyright (c) Steve Scherf et al.
# Submitted via: audiograbber 1.83.01
#
DISCID=db0ffd0e
DTITLE=Waidele and Friends - Saved - The best of the eighties
DYEAR=1900
DGENRE=
TTITLE0=Hello Friends
TTITLE1=Sunny
TTITLE2=Free man
TTITLE3=Don't eat the poison
TTITLE4=Brother where are you
TTITLE5=The days are gone
TTITLE6=I need my friends
TTITLE7=Mysterious love
TTITLE8=It's all in your head
TTITLE9=Imagine
TTITLE10=Hommage à W.F.
TTITLE11=Just peace
TTITLE12=Barbara
TTITLE13=The days are gone
EXTD=
EXTT0=
EXTT1=
EXTT2=
EXTT3=
EXTT4=
EXTT5=
EXTT6=
EXTT7=
EXTT8=
EXTT9=
EXTT10=
EXTT11=
EXTT12=
EXTT13=
PLAYORDER=
